<?xml version="1.0" standalone="no"?>
<!DOCTYPE svg PUBLIC "-//W3C//DTD SVG 20010904//EN"
 "http://www.w3.org/TR/2001/REC-SVG-20010904/DTD/svg10.dtd">
<svg version="1.0" xmlns="http://www.w3.org/2000/svg"
 width="143.000000pt" height="143.000000pt" viewBox="0 0 143.000000 143.000000"
 preserveAspectRatio="xMidYMid meet">
<metadata>
Created by potrace 1.14, written by Peter Selinger 2001-2017
</metadata>
<g transform="translate(0.000000,143.000000) scale(0.100000,-0.100000)"
fill="#000000" stroke="none">
<path d="M219 1378 c-58 -10 -101 -32 -139 -69 -68 -68 -65 -44 -68 -579 l-3
-485 28 -55 c32 -62 92 -114 153 -130 27 -7 210 -10 548 -8 l507 3 49 25 c52
26 102 85 122 143 8 22 11 183 10 507 -1 469 -2 476 -23 516 -30 56 -93 109
-150 124 -51 15 -956 21 -1034 8z"/>
</g>
</svg>
